<?xml version="1.0" standalone="no"?>
<!DOCTYPE svg PUBLIC "-//W3C//DTD SVG 20010904//EN"
 "http://www.w3.org/TR/2001/REC-SVG-20010904/DTD/svg10.dtd">
<svg version="1.0" xmlns="http://www.w3.org/2000/svg"
 width="280.000000pt" height="280.000000pt" viewBox="0 0 280.000000 280.000000"
 preserveAspectRatio="xMidYMid meet">
<metadata>
Created by potrace 1.14, written by Peter Selinger 2001-2017
</metadata>
<g transform="translate(0.000000,280.000000) scale(0.100000,-0.100000)"
fill="#000000" stroke="none">
<path d="M978 2573 l-3 -108 -212 -3 -213 -2 0 -105 0 -105 -105 0 -105 0 -2
-212 -3 -213 -107 -3 -108 -3 0 -424 0 -425 105 0 104 0 3 102 3 103 108 3
107 3 0 -106 0 -105 -105 0 -105 0 0 -215 0 -215 105 0 105 0 0 -105 0 -105
215 0 215 0 0 -110 0 -110 425 0 425 0 0 110 0 110 215 0 215 0 0 105 0 105
105 0 105 0 0 215 0 215 110 0 110 0 0 425 0 424 -107 3 -108 3 -3 213 -2 212
-105 0 -105 0 0 105 0 105 -212 2 -213 3 -3 108 -3 107 -424 0 -424 0 -3 -107z
m212 -428 l0 -104 108 -3 107 -3 0 -105 0 -105 -107 -3 -108 -3 0 -105 0 -105
-107 3 -108 3 -3 103 -3 102 -104 0 -105 0 0 110 0 110 105 0 105 0 0 98 c0
54 3 102 7 105 3 4 53 7 110 7 l103 0 0 -105z m372 -755 l58 0 -2 -207 -3
-208 -213 -3 -213 -2 3 -108 3 -107 213 -3 212 -2 0 110 0 110 318 -2 317 -3
3 -212 2 -213 -215 0 -215 0 0 -105 0 -105 -425 0 -425 0 0 105 0 105 -215 0
-215 0 0 215 0 215 320 0 320 0 0 208 c0 115 3 212 8 217 4 4 74 5 156 1 82
-3 176 -6 208 -6z m908 -315 l0 -105 -105 0 -105 0 0 105 0 105 105 0 105 0 0
-105z"/>
</g>
</svg>
